HIERARCHY
ROOT Hips
{
	OFFSET 0.000000 89.005402 0.000000
	CHANNELS 6 Xposition Yposition Zposition Xrotation Yrotation Zrotation
	JOINT Spine
	{
		OFFSET 0.116900 10.681000 0.373400
		CHANNELS 3 Xrotation Yrotation Zrotation
		JOINT Spine1
		{
			OFFSET 0.000000 13.840401 0.053500
			CHANNELS 3 Xrotation Yrotation Zrotation
			JOINT Spine2
			{
				OFFSET 0.000000 14.712700 -0.366200
				CHANNELS 3 Xrotation Yrotation Zrotation
				JOINT Neck
				{
					OFFSET 0.000000 35.415497 -3.314200
					CHANNELS 3 Xrotation Yrotation Zrotation
					JOINT Head
					{
						OFFSET 0.000000 16.899200 1.218300
						CHANNELS 3 Xrotation Yrotation Zrotation
						JOINT HeadTop_End
						{
							OFFSET 0.000000 22.206207 2.192500
							CHANNELS 3 Xrotation Yrotation Zrotation
							End Site
							{
								OFFSET 0.000000 22.314178 0.000000
							}
						}
					}
				}
				JOINT LeftShoulder
				{
					OFFSET 12.896400 26.716293 -4.548400
					CHANNELS 3 Xrotation Yrotation Zrotation
					JOINT LeftArm
					{
						OFFSET 19.027000 -4.857010 -1.718400
						CHANNELS 3 Xrotation Yrotation Zrotation
						JOINT LeftForeArm
						{
							OFFSET 24.179897 0.000000 0.000000
							CHANNELS 3 Xrotation Yrotation Zrotation
							JOINT LeftHand
							{
								OFFSET 27.156403 0.000000 0.000000
								CHANNELS 3 Xrotation Yrotation Zrotation
								JOINT LeftHandIndex1
								{
									OFFSET 16.441200 0.000000 0.000000
									CHANNELS 3 Xrotation Yrotation Zrotation
									JOINT LeftHandIndex2
									{
										OFFSET 4.821899 0.000000 0.000000
										CHANNELS 3 Xrotation Yrotation Zrotation
										JOINT LeftHandIndex3
										{
											OFFSET 6.386497 0.000000 0.000000
											CHANNELS 3 Xrotation Yrotation Zrotation
											JOINT LeftHandIndex4
											{
												OFFSET 5.188988 0.000000 0.000000
												CHANNELS 3 Xrotation Yrotation Zrotation
												End Site
												{
													OFFSET -0.178703 5.185913 0.000177
												}
											}
										}
									}
								}
								JOINT LeftHandThumb1
								{
									OFFSET 6.534897 -5.032593 5.900300
									CHANNELS 3 Xrotation Yrotation Zrotation
									JOINT LeftHandThumb2
									{
										OFFSET 3.818176 -2.204422 2.204423
										CHANNELS 3 Xrotation Yrotation Zrotation
										JOINT LeftHandThumb3
										{
											OFFSET 3.252098 -1.877594 1.877601
											CHANNELS 3 Xrotation Yrotation Zrotation
											JOINT LeftHandThumb4
											{
												OFFSET 5.251778 -3.032120 3.032117
												CHANNELS 3 Xrotation Yrotation Zrotation
												End Site
												{
													OFFSET 0.000023 6.780014 0.000000
												}
											}
										}
									}
								}
							}
						}
					}
				}
				JOINT RightShoulder
				{
					OFFSET -12.896300 26.716293 -4.548400
					CHANNELS 3 Xrotation Yrotation Zrotation
					JOINT RightArm
					{
						OFFSET -19.027000 -4.857010 -1.718400
						CHANNELS 3 Xrotation Yrotation Zrotation
						JOINT RightForeArm
						{
							OFFSET -24.179897 0.000000 0.000000
							CHANNELS 3 Xrotation Yrotation Zrotation
							JOINT RightHand
							{
								OFFSET -27.156403 0.000000 0.000000
								CHANNELS 3 Xrotation Yrotation Zrotation
								JOINT RightHandThumb1
								{
									OFFSET -6.591202 -4.852203 5.988100
									CHANNELS 3 Xrotation Yrotation Zrotation
									JOINT RightHandThumb2
									{
										OFFSET -3.818176 -2.204422 2.204423
										CHANNELS 3 Xrotation Yrotation Zrotation
										JOINT RightHandThumb3
										{
											OFFSET -3.252098 -1.877594 1.877601
											CHANNELS 3 Xrotation Yrotation Zrotation
											JOINT RightHandThumb4
											{
												OFFSET -5.251778 -3.032120 3.032117
												CHANNELS 3 Xrotation Yrotation Zrotation
												End Site
												{
													OFFSET -0.000023 6.780014 0.000000
												}
											}
										}
									}
								}
								JOINT RightHandIndex1
								{
									OFFSET -16.029404 0.000000 0.000000
									CHANNELS 3 Xrotation Yrotation Zrotation
									JOINT RightHandIndex2
									{
										OFFSET -5.213303 0.000000 0.000000
										CHANNELS 3 Xrotation Yrotation Zrotation
										JOINT RightHandIndex3
										{
											OFFSET -6.386528 0.000000 0.000000
											CHANNELS 3 Xrotation Yrotation Zrotation
											JOINT RightHandIndex4
											{
												OFFSET -5.189026 0.000000 0.000000
												CHANNELS 3 Xrotation Yrotation Zrotation
												End Site
												{
													OFFSET 0.236702 5.183624 0.001972
												}
											}
										}
									}
								}
							}
						}
					}
				}
			}
		}
	}
	JOINT LeftUpLeg
	{
		OFFSET 14.073000 -7.904099 -1.463000
		CHANNELS 3 Xrotation Yrotation Zrotation
		JOINT LeftLeg
		{
			OFFSET -0.109806 -34.073280 4.093200
			CHANNELS 3 Xrotation Yrotation Zrotation
			JOINT LeftFoot
			{
				OFFSET 0.109806 -29.899420 -6.319000
				CHANNELS 3 Xrotation Yrotation Zrotation
				JOINT LeftToeBase
				{
					OFFSET 1.551100 -14.988700 20.535801
					CHANNELS 3 Xrotation Yrotation Zrotation
					JOINT LeftToe_End
					{
						OFFSET 0.221200 0.570800 13.248301
						CHANNELS 3 Xrotation Yrotation Zrotation
						End Site
						{
							OFFSET 0.000000 13.262435 0.000000
						}
					}
				}
			}
		}
	}
	JOINT RightUpLeg
	{
		OFFSET -13.839300 -7.904099 -1.463000
		CHANNELS 3 Xrotation Yrotation Zrotation
		JOINT RightLeg
		{
			OFFSET 0.109694 -34.073219 4.093300
			CHANNELS 3 Xrotation Yrotation Zrotation
			JOINT RightFoot
			{
				OFFSET -0.109694 -29.899384 -6.319200
				CHANNELS 3 Xrotation Yrotation Zrotation
				JOINT RightToeBase
				{
					OFFSET -1.551100 -14.988700 20.535801
					CHANNELS 3 Xrotation Yrotation Zrotation
					JOINT RightToe_End
					{
						OFFSET -0.221200 0.570900 13.248299
						CHANNELS 3 Xrotation Yrotation Zrotation
						End Site
						{
							OFFSET 0.000000 13.262440 0.000000
						}
					}
				}
			}
		}
	}
}
MOTION
Frames: 7
Frame Time: 0.033333
0.613964 65.293686 -9.552950 20.024192 -37.703037 10.149335 16.612113 3.147999 -8.327980 19.031057 2.546468 -8.977080 19.005852 2.526616 -9.086931 2.501884 -0.868897 -2.500266 -36.091157 20.174552 2.630677 0.000001 0.000000 0.000000 1.018086 -10.012967 -3.392308 -45.801288 -10.368704 -37.853776 0.000420 -95.732027 0.000393 -7.023630 -18.700734 3.701216 0.255312 3.378217 -45.814344 5.654092 5.847756 -88.067462 2.162137 4.544817 -50.866372 -0.000000 0.000001 -0.000001 -6.141214 -11.690800 -6.761688 9.914111 42.595519 3.409845 -0.422806 8.108088 27.509115 -0.000000 0.000003 -0.000002 11.737801 30.729318 2.115084 -39.388038 32.561086 39.904861 -0.000033 114.921116 0.000024 -21.598337 17.308509 10.513075 -7.341094 13.749658 7.412320 9.855754 -44.489107 -3.903262 -0.115775 -14.513088 -28.973881 -0.000000 -0.000001 0.000003 -0.124376 -2.384785 45.108857 4.500581 -4.654549 88.071157 1.723228 -3.618379 50.920119 0.000002 -0.000002 -0.000003 -67.786274 -11.437713 23.729964 62.280274 -1.622104 7.010430 -13.506446 -14.759583 -28.171646 -1.490283 0.000007 -0.000007 -0.000000 0.000000 0.000000 -54.854649 -20.310322 -35.840195 79.593970 6.834246 4.651813 -39.919082 -5.599862 5.287917 -0.012998 0.000028 -0.000002 0.000000 -0.000000 -0.000000 
1.576609 65.927803 -9.229391 19.530475 -41.862889 11.147000 16.615238 1.938250 -7.654862 18.972131 1.833436 -8.445989 18.949451 1.835309 -8.553786 2.782887 0.023945 -2.557475 -35.504034 24.883691 2.457786 0.000000 -0.000000 -0.000001 0.990670 -10.267853 -2.972525 -44.266159 -8.043336 -39.645013 -0.000071 -100.386808 -0.000070 -6.179142 -19.068648 3.857445 0.255311 3.378217 -45.814344 5.654094 5.847757 -88.067462 2.162135 4.544818 -50.866372 0.000000 0.000001 0.000000 -6.141213 -11.690802 -6.761684 9.914112 42.595522 3.409852 -0.422802 8.108092 27.509113 -0.000004 0.000001 -0.000001 11.730712 30.308841 1.761530 -43.966638 33.105268 44.681264 0.000034 114.688917 -0.000045 -21.528143 17.912478 10.493790 -7.341092 13.749658 7.412322 9.855749 -44.489100 -3.903268 -0.115773 -14.513086 -28.973884 -0.000000 0.000001 -0.000002 -0.124377 -2.384782 45.108857 4.500582 -4.654546 88.071157 1.723230 -3.618379 50.920116 0.000000 0.000001 0.000000 -64.793046 -9.175141 25.523587 63.216112 -1.917840 6.204101 -14.803813 -12.636848 -26.893199 -1.484505 0.000021 0.000000 0.000000 0.000001 0.000000 -55.164638 -17.133811 -33.987551 78.358471 6.060930 3.187671 -36.714330 -5.141214 6.191734 -0.012998 0.000028 -0.000002 0.000000 0.000000 0.000000 
2.129157 66.728577 -8.941504 18.161061 -45.871400 11.422327 16.267533 1.026894 -7.197871 18.746836 1.294986 -8.106985 18.724455 1.320418 -8.211750 3.092291 0.772116 -2.351535 -34.299192 29.048122 2.343020 0.000001 -0.000000 -0.000000 0.956006 -10.202694 -2.105681 -42.190072 -5.001136 -41.483318 0.000049 -105.044355 0.000053 -4.536186 -18.290741 4.218226 0.255311 3.378218 -45.814344 5.654094 5.847759 -88.067462 2.162136 4.544821 -50.866372 0.000002 -0.000002 0.000005 -6.141214 -11.690800 -6.761684 9.914112 42.595529 3.409849 -0.422805 8.108087 27.509106 0.000001 -0.000000 0.000000 11.746160 30.115069 1.495962 -47.556521 33.666050 47.724355 0.000005 114.082314 -0.000008 -21.495288 19.038213 10.119476 -7.341092 13.749658 7.412324 9.855750 -44.489107 -3.903270 -0.115774 -14.513088 -28.973881 -0.000000 0.000002 -0.000001 -0.124376 -2.384785 45.108857 4.500579 -4.654544 88.071150 1.723230 -3.618381 50.920116 0.000002 -0.000003 -0.000001 -60.846276 -6.480751 27.271313 63.347054 -2.329221 5.669550 -16.108354 -10.712569 -25.930967 -1.493864 -0.000010 -0.000000 -0.000000 0.000002 0.000000 -54.096652 -14.531484 -31.953107 76.741492 4.970115 1.897974 -34.070247 -4.336302 7.237700 -0.012998 0.000027 -0.000002 -0.000000 0.000000 -0.000000 
2.352917 67.643295 -8.662448 16.284236 -49.746638 11.143683 15.570929 0.740101 -6.876374 18.323471 1.158810 -7.824491 18.298497 1.203880 -7.929132 3.514489 1.275066 -2.150947 -32.702795 32.033276 2.388448 -0.000002 -0.000001 -0.000000 0.901497 -10.325536 -1.742729 -40.068666 -2.056706 -42.774299 0.000005 -108.794716 0.000026 -3.082209 -17.125277 4.255166 0.255308 3.378220 -45.814341 5.654092 5.847757 -88.067462 2.162136 4.544817 -50.866372 -0.000003 -0.000001 0.000003 -6.141217 -11.690799 -6.761682 9.914115 42.595522 3.409848 -0.422803 8.108093 27.509116 -0.000001 -0.000000 -0.000001 11.711789 29.796171 1.367584 -49.660605 34.655437 48.478384 0.000038 113.576272 -0.000044 -21.512466 19.051658 9.362496 -7.341095 13.749651 7.412322 9.855756 -44.489107 -3.903268 -0.115774 -14.513092 -28.973881 -0.000000 -0.000001 0.000000 -0.124378 -2.384791 45.108861 4.500581 -4.654545 88.071157 1.723228 -3.618380 50.920116 0.000001 -0.000001 0.000003 -56.305153 -3.580683 28.815328 62.764883 -2.758613 5.352047 -17.392209 -8.881893 -25.322781 -1.518283 0.000024 -0.000003 0.000000 0.000002 -0.000000 -52.362604 -12.564527 -30.210883 74.835719 4.292028 0.996451 -31.892844 -3.229165 7.827049 -0.012998 0.000027 -0.000002 -0.000000 0.000001 -0.000000 
2.361574 68.604538 -8.334373 13.345496 -52.977628 9.929967 14.928703 0.559080 -6.444815 17.951979 1.081451 -7.478129 17.927196 1.139133 -7.578924 3.792142 1.678149 -1.987585 -30.731453 34.437640 2.094250 -0.000002 -0.000000 -0.000000 0.844886 -9.952211 -1.713642 -38.238770 0.736380 -43.849254 0.000027 -111.932812 0.000025 -2.715717 -15.819889 3.960771 0.255309 3.378218 -45.814344 5.654095 5.847757 -88.067462 2.162138 4.544811 -50.866376 0.000002 -0.000001 -0.000003 -6.141215 -11.690802 -6.761685 9.914113 42.595525 3.409853 -0.422802 8.108089 27.509111 -0.000001 -0.000001 -0.000003 11.651679 29.153341 1.032172 -51.228468 35.938833 48.427199 0.000003 113.028429 -0.000002 -22.225943 18.589420 9.957982 -7.341098 13.749660 7.412320 9.855753 -44.489100 -3.903267 -0.115774 -14.513088 -28.973884 0.000000 -0.000000 0.000000 -0.124377 -2.384784 45.108857 4.500584 -4.654546 88.071157 1.723229 -3.618381 50.920116 -0.000000 -0.000005 0.000004 -51.332352 -0.601350 29.599752 61.563944 -2.886036 5.263193 -18.463176 -7.507753 -25.017540 -1.531354 0.000017 0.000009 0.000000 -0.000000 -0.000000 -49.851850 -11.212883 -29.269065 72.912283 4.211206 0.378004 -30.331449 -2.273554 8.090914 -0.012998 0.000027 -0.000002 -0.000000 -0.000000 -0.000000 
2.205275 69.475990 -7.917510 9.233578 -55.304547 7.661898 14.405958 0.195023 -5.978134 17.581329 0.837804 -7.165807 17.559776 0.904583 -7.256262 3.828470 2.158254 -1.411255 -27.826819 36.876164 1.227820 0.000000 -0.000000 0.000001 0.787345 -8.728055 -0.875833 -36.279786 3.615891 -45.370071 -0.000035 -114.808472 -0.000033 -2.637162 -14.402970 3.771280 0.255311 3.378218 -45.814344 5.654095 5.847757 -88.067462 2.162137 4.544818 -50.866376 -0.000001 0.000001 -0.000000 -6.141214 -11.690801 -6.761687 9.914111 42.595525 3.409854 -0.422804 8.108089 27.509113 -0.000002 0.000000 -0.000001 11.515577 28.553071 0.932637 -52.804469 36.947328 48.480270 0.000125 112.328560 -0.000125 -23.020826 18.170484 11.917827 -7.341093 13.749660 7.412324 9.855751 -44.489103 -3.903268 -0.115773 -14.513090 -28.973881 -0.000000 -0.000000 -0.000000 -0.124379 -2.384786 45.108864 4.500587 -4.654545 88.071157 1.723228 -3.618373 50.920112 -0.000001 -0.000000 -0.000000 -46.260957 2.225786 29.690545 60.146475 -2.729534 5.193929 -19.378350 -6.818652 -24.802707 -1.521667 -0.000012 -0.000002 0.000000 -0.000002 -0.000000 -46.588990 -10.205407 -28.815117 71.312086 4.079625 -0.522504 -29.521399 -1.835909 8.747695 -0.012998 0.000027 -0.000002 -0.000000 0.000000 0.000000 
1.932850 70.201744 -7.276804 5.181206 -56.936836 5.167459 13.676902 0.202848 -5.314276 16.882462 0.785228 -6.684104 16.863942 0.855074 -6.764238 4.003460 2.666484 -0.880786 -23.643002 38.492733 0.001296 -0.000001 0.000001 -0.000000 0.699082 -8.059669 -0.301888 -34.516139 6.570009 -46.537641 -0.000025 -117.009255 -0.000016 -2.525160 -12.600228 3.222201 0.255309 3.378219 -45.814341 5.654092 5.847757 -88.067462 2.162136 4.544819 -50.866379 -0.000002 0.000002 0.000002 -6.141214 -11.690801 -6.761682 9.914110 42.595529 3.409854 -0.422803 8.108090 27.509115 -0.000001 0.000001 0.000000 11.257099 27.901803 1.035040 -53.566097 37.370950 48.794988 0.000084 111.572356 -0.000082 -22.990984 17.911398 12.457241 -7.341095 13.749658 7.412321 9.855751 -44.489096 -3.903272 -0.115772 -14.513090 -28.973878 -0.000001 -0.000000 -0.000001 -0.124377 -2.384785 45.108857 4.500584 -4.654546 88.071157 1.723230 -3.618381 50.920116 0.000001 -0.000000 0.000001 -41.713488 4.599160 29.460955 58.995575 -2.666429 4.951112 -20.420708 -6.427840 -24.410107 -1.542628 -0.000010 0.000005 -0.000000 0.000002 0.000000 -43.134479 -9.234716 -28.263978 69.853799 3.828926 -1.828818 -29.151097 -2.222506 9.952690 -0.012998 0.000027 -0.000002 0.000000 0.000000 -0.000000 
